<svg xmlns="http://www.w3.org/2000/svg" viewBox="0 0 100 100" width="100" height="100">
  <defs>
    <linearGradient id="cupGradient" x1="0%" y1="0%" x2="100%" y2="100%">
      <stop offset="0%" style="stop-color:#D2691E;stop-opacity:1" />
      <stop offset="100%" style="stop-color:#8B4513;stop-opacity:1" />
    </linearGradient>
    <linearGradient id="steamGradient" x1="0%" y1="0%" x2="0%" y2="100%">
      <stop offset="0%" style="stop-color:#FFFFFF;stop-opacity:0.8" />
      <stop offset="100%" style="stop-color:#FFFFFF;stop-opacity:0" />
    </linearGradient>
  </defs>
  
  {/* Cup Body */}
  <path d="M20,80 Q20,60 30,50 L70,50 Q80,60 80,80 Z" fill="url(#cupGradient)" stroke="#654321" stroke-width="2"/>
  
  {/* Cup Handle */}
  <path d="M80,65 C95,60 95,75 80,70" fill="none" stroke="url(#cupGradient)" stroke-width="5"/>
  
  {/* Saucer */}
  <ellipse cx="50" cy="85" rx="35" ry="8" fill="#F5F5DC" stroke="#D2B48C" stroke-width="1"/>
  
  {/* Tea Liquid */}
  <ellipse cx="50" cy="52" rx="28" ry="5" fill="#6B4226"/>
  
  {/* Steam 1 */}
  <path d="M40,45 Q42,35 45,30 Q48,35 50,45" stroke="url(#steamGradient)" stroke-width="3" fill="none" stroke-linecap="round"/>
  {/* Steam 2 */}
  <path d="M50,40 Q52,30 55,25 Q58,30 60,40" stroke="url(#steamGradient)" stroke-width="3" fill="none" stroke-linecap="round" style="animation: steamAnimation 2s infinite alternate;"/>
  {/* Steam 3 */}
  <path d="M60,45 Q62,35 65,30 Q68,35 70,45" stroke="url(#steamGradient)" stroke-width="3" fill="none" stroke-linecap="round" style="animation: steamAnimation 2s infinite alternate 0.5s;"/>
  
  <style>
    @keyframes steamAnimation {
      0% { opacity: 0.8; transform: translateY(0px) scale(1); }
      50% { opacity: 0.4; transform: translateY(-5px) scale(1.05); }
      100% { opacity: 0.8; transform: translateY(0px) scale(1); }
    }
  </style>
</svg>